PathFileType	4	(X/Y/Z)	C:\Users\°ÂÌØÂü\Desktop\20210112\bx_n_5_502-Unnamed.trc
DataRate	CameraRate	NumFrames	NumMarkers	Units	OrigDataRate	OrigDataStartFrame	OrigNumFrames
50.00	50.00	       5	0	mm	50.00	428	       489
Frame#	Time	
		

428	8.540	-738.33636	295.07788	1535.73730	-606.60889	249.76462	1071.41003	-688.71069	151.42290	580.09802	-683.20288	294.79254	874.84119	-581.09906	4.57747	809.58801	-749.84283	-65.25271	1533.17578	-691.35620	275.97543	745.61761	-723.31256	257.48236	644.57385	-587.02679	229.00241	796.37109	-653.27502	18.57609	518.91602	-724.41663	254.99762	577.82318	-671.47693	211.13753	537.19141	-799.32214	101.29011	1046.00720	-712.02942	156.44089	217.95859	-767.98169	230.44720	204.92079	-882.45648	296.13852	144.71089	-674.86359	51.71690	161.62001	-676.09741	173.75818	159.51227	-592.21539	217.92419	173.40698	-659.46899	297.72260	157.38620	-623.03589	306.23755	158.94173	-555.40021	253.79362	164.06822	-527.99908	304.58014	146.82976	-806.02136	113.89307	1839.46411	-681.37384	77.17195	574.76044	-764.28766	264.42322	503.30542	-517.28973	-72.90422	143.61909	-548.04364	-26.78618	163.97017	-629.78790	109.06995	1364.33081				-793.81372	36.27450	174.43738	-796.68719	181.08369	183.85204	-745.62927	-44.64735	490.27792	-600.25476	24.62453	170.76170	-756.35254	-22.62137	208.30064	-875.87335	-78.57735	141.34627	-716.61670	68.21598	217.03531	-700.07520	-30.06149	569.58344	-605.56372	-72.11983	160.63127	-648.15887	-67.25264	162.30858	-672.06403	-55.22144	759.53296	-596.52234	1.03403	1059.97754							-652.87439	-68.12039	875.00757	-692.53113	-32.56195	618.77484	
429	8.560	-739.33612	294.85260	1535.38550	-606.12628	249.18539	1071.59839	-688.45215	151.10680	579.80127	-682.84778	294.59451	875.18536	-580.75330	4.31715	809.55585	-750.80298	-65.60915	1532.93237	-690.68805	275.41281	745.65808	-722.43964	256.87842	644.41327	-586.49304	227.98776	796.12170	-653.04456	18.02309	518.77179	-723.77289	254.64964	577.49908	-671.14850	211.15366	537.37714	-798.59204	100.76871	1045.64221	-712.35211	156.02045	218.05693	-767.91467	230.40150	205.03613	-882.55408	296.28027	144.78130	-674.86359	51.71690	161.62001	-675.99951	173.92093	159.52786	-592.15619	217.78525	173.62183	-659.41412	297.72134	157.28479	-623.19305	306.00909	159.11667	-555.47003	253.90623	163.91745	-528.04419	304.62152	146.80469	-807.48846	113.56001	1839.03406	-681.15741	76.87894	574.38806	-764.05029	264.19031	503.40668	-517.22375	-73.23029	143.71159	-548.06183	-26.81778	163.98358	-630.29828	108.80792	1364.26904				-793.48132	36.18477	174.30324	-796.63239	181.07941	183.91953	-745.42505	-44.88744	490.36813	-600.08722	24.72097	170.71889	-756.15295	-22.80966	208.46997	-875.95648	-78.79716	141.44162	-716.73639	68.04388	216.73250	-699.80194	-30.38683	569.72516	-605.42920	-72.21236	160.42737	-647.86993	-67.38790	162.21468	-670.98419	-55.75344	759.85309	-595.66003	0.28123	1060.15784							-652.09778	-68.98319	875.14081	-691.61584	-33.09478	618.41626	
430	8.580	-740.47473	294.39902	1534.92224	-605.36987	248.72752	1071.57422	-687.54480	150.60924	579.91742	-682.28961	293.27283	874.73987	-579.64459	4.02628	809.66968	-751.52185	-65.88696	1532.81348	-690.41541	274.56732	745.20551	-722.22424	256.82913	644.73090	-585.85553	227.64632	796.37891	-652.91602	17.93989	518.58447	-722.65399	253.52135	576.86279	-670.77710	210.73917	537.42993	-798.07672	100.04597	1045.43335	-712.32239	155.89098	218.01999	-767.99255	230.29584	204.90323	-882.42224	296.21420	144.80258	-674.86359	51.71690	161.62001	-676.05865	173.89282	159.27052	-592.15619	217.78525	173.62183	-659.48578	297.68106	157.37155	-623.20593	306.07034	159.02519	-555.41187	253.74341	164.08328	-528.08289	304.50589	146.80527	-808.88904	113.61098	1838.60828	-680.97632	76.35310	574.36798	-763.46753	263.88434	503.46884	-517.28448	-72.77508	143.42804	-548.01172	-26.69693	164.04001	-630.42645	108.64660	1364.29773				-793.39685	35.87175	174.42952	-796.58362	180.91173	183.81233	-745.11865	-45.38975	490.42621	-600.03534	24.66390	170.59563	-756.21643	-22.44822	207.82693	-875.85034	-78.68372	141.27127	-716.73639	68.04388	216.73250	-699.58722	-30.95997	569.50165	-605.37347	-72.22548	159.47513	-648.06732	-67.41434	162.13869	-670.00208	-57.41497	760.31317	-595.31012	-0.11442	1059.92505							-651.66858	-69.32709	875.20837	-691.15820	-33.55544	618.29675	
431	8.600	-741.45825	294.18713	1534.54541	-605.00586	248.42632	1071.36829	-687.09045	149.78253	580.08344	-681.77716	293.26517	875.02234	-579.67499	3.66457	809.09247	-751.86078	-66.50774	1532.49548	-689.67053	274.24405	745.37799	-722.02875	256.73080	645.00690	-585.63501	227.66760	796.42407	-652.84857	17.65669	518.53497	-723.07971	253.63657	577.72473	-670.68115	210.63702	537.33453	-797.09601	99.54063	1045.10779	-712.21844	155.75398	218.06488	-768.06293	230.17935	205.10951	-882.48029	296.33026	144.85162	-674.86359	51.71690	161.62001	-676.05865	173.89282	159.27052	-592.15619	217.78525	173.62183	-659.26984	297.70731	157.39969	-623.20715	305.89520	159.20731	-555.45844	253.83888	163.93555	-528.00360	304.26416	146.79359	-809.81183	113.15446	1838.29553	-680.68494	76.00890	574.46399	-763.05841	263.19107	503.28302	-517.52734	-72.70634	143.28021	-548.13708	-26.59536	164.20599	-630.43848	108.47128	1364.24438				-793.40302	36.01217	174.40585	-796.59015	180.88193	183.86182	-744.83734	-45.56627	490.43939	-599.91254	24.75616	170.60779	-756.27429	-23.00940	208.38557	-875.95648	-78.79716	141.44162	-716.73639	68.04388	216.73250	-699.22736	-31.06074	569.58557	-605.48608	-72.53070	159.49890	-647.85339	-67.62975	162.14680	-670.03876	-57.65077	760.03778	-594.71460	-0.56375	1059.77808							-651.22070	-69.80022	875.21454	-690.66632	-33.56976	617.89417	
432	8.620	-742.19952	293.76013	1534.27319	-604.34998	248.10002	1071.47412	-686.95941	149.69202	580.14551	-681.20160	293.41302	875.40967	-579.15155	3.16200	809.20850	-752.39215	-66.83297	1532.45093	-689.67139	274.07837	745.56250	-721.80963	256.22092	645.02686	-585.02496	227.31129	796.34351	-652.83325	17.39674	518.57434	-722.99078	253.21013	578.12439	-670.19000	210.08374	537.05475	-797.01898	99.18388	1045.20898	-712.18066	155.43562	217.90547	-768.00781	229.88971	204.87953	-882.57434	296.15549	144.64362	-674.72760	51.59531	161.51840	-676.05865	173.89282	159.27052	-591.99896	217.62209	173.56709	-659.44470	297.60672	157.35286	-623.20715	305.89520	159.20731	-555.39313	253.81485	164.06558	-528.12799	304.54727	146.78020	-810.39246	113.09193	1837.97656	-680.21997	75.53821	574.22217	-762.87000	262.79001	503.26614	-517.27521	-72.98934	143.70752	-547.86011	-26.48590	164.00024	-630.60199	108.00904	1364.00476				-793.42462	36.08947	174.39706	-796.52142	180.79147	183.84427	-744.75476	-45.63126	490.23639	-600.02435	24.80529	170.60162	-756.60040	-22.51726	207.76500	-875.87335	-78.57735	141.34627	-716.73639	68.04388	216.73250	-698.52795	-31.99802	569.80536	-605.24829	-72.50224	159.04005	-647.85339	-67.62975	162.14680	-669.70557	-57.98042	760.05389	-594.29871	-0.92349	1059.97070							-650.59387	-70.32846	875.17792	-690.76709	-33.65200	617.34790	
